<?xml version="1.0" encoding="UTF-8"?>
<svg id="Livello_2" data-name="Livello 2" xmlns="http://www.w3.org/2000/svg" viewBox="0 0 74.12 85.3">
  <defs>
    <style>
      .cls-1 {
        fill: none;
        stroke: #434343;
        stroke-miterlimit: 10;
        stroke-width: 2px;
      }
    </style>
  </defs>
  <g id="Livello_1-2" data-name="Livello 1">
    <g>
      <rect class="cls-1" x="1" y="1" width="71.83" height="12.72" rx="6.36" ry="6.36"/>
      <rect class="cls-1" x="1.3" y="13.84" width="71.83" height="21.31" rx="10.66" ry="10.66"/>
      <polyline class="cls-1" points="14.01 35.17 14.01 84.3 60.15 84.3 60.15 34.92"/>
      <line class="cls-1" x1="13.51" y1="43.65" x2="60.4" y2="43.65"/>
      <path class="cls-1" d="m8.16,28.35c0-3.81,2.67-6.89,5.96-6.89s5.96,3.09,5.96,6.89-2.67,6.89-5.96,6.89"/>
      <path class="cls-1" d="m59.46,35.17c-3.29,0-5.96-3.09-5.96-6.89s2.67-6.89,5.96-6.89,5.96,3.09,5.96,6.89"/>
      <line class="cls-1" x1="20.08" y1="28.27" x2="53.8" y2="28.2"/>
      <path class="cls-1" d="m21,85.28v-26.03c0-1.97,1.59-3.56,3.56-3.56h0c1.97,0,3.56,1.59,3.56,3.56v26.03"/>
      <path class="cls-1" d="m33.52,85.22v-26.03c0-1.97,1.59-3.56,3.56-3.56h0c1.97,0,3.56,1.59,3.56,3.56v26.03"/>
      <path class="cls-1" d="m45.9,85.21v-26.03c0-1.97,1.59-3.56,3.56-3.56h0c1.97,0,3.56,1.59,3.56,3.56v26.03"/>
    </g>
  </g>
</svg>