<?xml version="1.0" encoding="UTF-8"?>
<svg id="Livello_2" data-name="Livello 2" xmlns="http://www.w3.org/2000/svg" viewBox="0 0 80.3 93.91">
  <defs>
    <style>
      .cls-1 {
        fill: none;
        stroke: #434343;
        stroke-miterlimit: 10;
        stroke-width: 2px;
      }
    </style>
  </defs>
  <g id="Livello_1-2" data-name="Livello 1">
    <g>
      <path class="cls-1" d="m1.62,14.37c14.01-.12,26.55-4.86,37.96-13.16,12.24,7.72,25.28,12.41,38.97,14.68,4.22,38.8-9.63,63.5-37.96,76.93C10.97,80.53-2.11,54.46,1.62,14.37Z"/>
      <path class="cls-1" d="m9.57,21.31c11.27-.09,21.35-3.91,30.52-10.58,9.84,6.21,20.33,9.98,31.34,11.8,3.4,31.2-7.74,51.07-30.52,61.86C17.08,74.52,6.56,53.55,9.57,21.31Z"/>
      <path class="cls-1" d="m38.64,23.14h3.06c3.63,0,6.58,2.94,6.58,6.58v7.68c0,3.11-2.5,5.64-5.6,5.68l-4.81.06c-3.14.04-5.7-2.51-5.67-5.65l.04-4.15.04-3.89c.04-3.49,2.87-6.3,6.36-6.3Z"/>
      <path class="cls-1" d="m32.24,33.34c3.28.76,6.24-.17,8.63-4.19,1.67,2.67,3.97,4.46,7.11,5.08"/>
      <g>
        <line class="cls-1" x1="23.44" y1="63.57" x2="55.96" y2="63.57"/>
        <g>
          <path class="cls-1" d="m23.73,64.44c0-11.65,7.28-21.1,16.26-21.1s16.26,9.45,16.26,21.1"/>
          <path class="cls-1" d="m43.15,44.27c0,1.72-1.36,3.12-3.05,3.12s-3.05-1.4-3.05-3.12"/>
          <polyline class="cls-1" points="37.84 46.54 36.24 56.06 40.34 60.05 44.12 55.85 42.61 46.22"/>
        </g>
      </g>
    </g>
  </g>
</svg>